<?xml version="1.0" encoding="UTF-8"?>
<svg xmlns="http://www.w3.org/2000/svg" viewBox="0 0 100 100" width="400" height="400" overflow="visible">
  <defs>
    <style>
      .tsl-threat { color: #E67E22; }
    </style>
  </defs>
  <g class="tsl-threat">
    
    <g opacity="0.2" stroke="currentColor" stroke-width="2"><circle cx="50" cy="50" r="30" fill="none" stroke-dasharray="4 4"/><line x1="50" y1="20" x2="50" y2="80"/><line x1="20" y1="50" x2="80" y2="50"/><line x1="28" y1="28" x2="72" y2="72"/><line x1="28" y1="72" x2="72" y2="28"/></g>
    
    <g stroke-dasharray="6 4">
      <rect x="5" y="5" width="90" height="90" fill="none" stroke="currentColor" stroke-width="4" vector-effect="non-scaling-stroke"/>
    </g>
    
    
    <g class="tsl-modifier">
      <g fill="none" stroke="currentColor" stroke-width="4"><path d="M -10,-10 L 10,10 M 0,10 L 10,10 L 10,0"/><path d="M 110,110 L 90,90 M 100,90 L 90,90 L 90,100"/><path d="M 110,-10 L 90,10 M 100,10 L 90,10 L 90,0"/><path d="M -10,110 L 10,90 M 0,90 L 10,90 L 10,100"/></g>
    </g>
  </g>
</svg>