<?xml version="1.0" encoding="UTF-8"?>
<svg xmlns="http://www.w3.org/2000/svg" viewBox="0 0 100 100" width="400" height="400" overflow="visible">
  <defs>
    <style>
      .tsl-threat { color: #8E44AD; }
    </style>
  </defs>
  <g class="tsl-threat">
    
    <g opacity="0.2" fill="none" stroke="currentColor" stroke-width="4"><circle cx="30" cy="50" r="12"/><circle cx="50" cy="50" r="12"/><circle cx="70" cy="50" r="12"/></g>
    
    <g >
      <polygon points="50,5 95,38 78,95 22,95 5,38" fill="none" stroke="currentColor" stroke-width="4" vector-effect="non-scaling-stroke"/>
    </g>
    
    <g transform="translate(25, 25) scale(0.5)">
      <path d="M 30,80 L 30,20 L 70,50 Z M 10,50 L 30,50 M 10,30 L 30,30 M 10,70 L 30,70" fill="none" stroke="currentColor" stroke-width="6" stroke-linecap="round" stroke-linejoin="round"/>
    </g>
    
    <g class="tsl-modifier">
      <g fill="none" stroke="currentColor" stroke-width="3" opacity="0.7"><line x1="50" y1="-10" x2="50" y2="10"/><line x1="50" y1="110" x2="50" y2="90"/><line x1="-10" y1="50" x2="10" y2="50"/><line x1="110" y1="50" x2="90" y2="50"/><line x1="8" y1="8" x2="22" y2="22"/><line x1="92" y1="92" x2="78" y2="78"/><line x1="92" y1="8" x2="78" y2="22"/><line x1="8" y1="92" x2="22" y2="78"/></g>
    </g>
  </g>
</svg>